<?xml version="1.0"?><svg width="265.66891" height="287.93268" xmlns="http://www.w3.org/2000/svg" xmlns:xlink="http://www.w3.org/1999/xlink">
 <title>love birds on a branch</title>
 <metadata id="metadata7">image/svg+xml</metadata>
 <g>
  <title>Layer 1</title>
  <defs>
   <filter id="svg_682">
    <feGaussianBlur stdDeviation="0.028007" id="svg_683"/>
   </filter>
   <pattern xlink:href="#svg_511" id="svg_482" patternTransform="translate(-84.1377, 510.395)"/>
   <pattern xlink:href="#svg_511" id="svg_676" patternTransform="matrix(0.880062, 0, 0, 0.880062, -58.8481, 577.678)"/>
   <pattern xlink:href="#svg_511" id="svg_674" patternTransform="matrix(0.880062, 0, 0, 0.880062, -58.8481, 577.678)"/>
   <pattern xlink:href="#svg_511" id="svg_672" patternTransform="matrix(0.880062, 0, 0, 0.880062, -58.8481, 577.678)"/>
   <pattern xlink:href="#svg_511" id="svg_670" patternTransform="matrix(0.880062, 0, 0, 0.880062, -58.8481, 577.678)"/>
   <pattern xlink:href="#svg_511" id="svg_668" patternTransform="matrix(0.880062, 0, 0, 0.880062, -58.8481, 577.678)"/>
   <pattern xlink:href="#svg_736" id="svg_681" patternTransform="translate(0.0672191, 0.0671756)"/>
   <pattern xlink:href="#svg_684" id="svg_736" patternTransform="translate(-79.9494, 517.532)"/>
   <pattern xlink:href="#svg_712" id="svg_507" patternTransform="translate(-212.763, 474.817)"/>
   <pattern xlink:href="#svg_735" id="svg_509" patternTransform="matrix(0.893653, 0, 0, 0.815661, -53.4473, 517.427)"/>
   <pattern xlink:href="#svg_723" id="svg_735" patternTransform="matrix(0.893653, 0, 0, 0.815661, -50.3653, 517.419)"/>
   <pattern xlink:href="#svg_724" id="svg_723" patternTransform="matrix(0.692326, 0, 0, 0.69244, 3.54248e-07, -1.90234e-05)"/>
   <pattern xlink:href="#svg_727" id="svg_726" patternTransform="matrix(0.73209, 0, 0, 0.714954, -6.45752e-07, 1.75391e-05)"/>
   <pattern patternUnits="userSpaceOnUse" width="3.551382" height="3.635903" patternTransform="matrix(0.73209, 0, 0, 0.714954, -50.3262, 517.536)" id="svg_727">
    <path id="svg_734" d="m2.19847,0.29226c0.28594,0.31889 0.36332,0.78009 0.17283,1.03011c-0.19049,0.25002 -0.57671,0.19418 -0.86265,-0.12472c-0.28594,-0.31889 -0.36332,-0.78008 -0.17283,-1.0301c0.19049,-0.25002 0.57671,-0.19419 0.86265,0.12471z" fill="#800000"/>
    <path d="m1.25987,2.07843c-0.26906,0.3736 -0.68656,0.53954 -0.93251,0.37063c-0.24595,-0.16892 -0.22721,-0.60871 0.04186,-0.98231c0.26907,-0.3736 0.68656,-0.53954 0.93251,-0.37063c0.24595,0.16891 0.22721,0.6087 -0.04186,0.98231z" id="svg_733" fill="#800000"/>
    <path id="svg_732" d="m2.09614,3.11828c-0.37625,0.13239 -0.73541,-0.03663 -0.80221,-0.37752c-0.06679,-0.3409 0.18409,-0.72455 0.56035,-0.85694c0.37626,-0.13238 0.73541,0.03664 0.80221,0.37753c0.06678,0.34089 -0.18409,0.72455 -0.56035,0.85693z" fill="#800000"/>
    <path id="svg_731" d="m0.90538,0.59997c-0.07413,0.34353 -0.33108,0.63208 -0.57393,0.64449c-0.24285,0.01241 -0.37962,-0.25602 -0.3055,-0.59955c0.07413,-0.34354 0.33108,-0.63209 0.57393,-0.6445c0.24285,-0.01241 0.37962,0.25602 0.3055,0.59956z" fill="#800000"/>
    <path d="m3.12962,1.48654c-0.27786,0.13239 -0.5431,-0.03663 -0.59243,-0.37753c-0.04932,-0.34089 0.13595,-0.72454 0.41381,-0.85693c0.27787,-0.13238 0.54311,0.03664 0.59243,0.37753c0.04932,0.34089 -0.13594,0.72455 -0.41381,0.85693z" id="svg_730" fill="#800000"/>
    <path d="m3.51902,2.71922c0.03585,0.35104 -0.117,0.72001 -0.3414,0.8241c-0.2244,0.10409 -0.43537,-0.0961 -0.47122,-0.44715c-0.03585,-0.35104 0.117,-0.72 0.3414,-0.8241c0.2244,-0.10409 0.43537,0.0961 0.47122,0.44715z" id="svg_729" fill="#800000"/>
    <path d="m0.48139,3.62673c-0.32262,-0.05105 -0.53317,-0.30081 -0.47028,-0.55787c0.06288,-0.25705 0.37539,-0.42406 0.69801,-0.37302c0.32262,0.05105 0.53317,0.30081 0.47028,0.55787c-0.06289,0.25706 -0.37539,0.42406 -0.69801,0.37302z" id="svg_728" fill="#800000"/>
   </pattern>
   <pattern patternUnits="userSpaceOnUse" width="2.599932" height="2.599502" patternTransform="matrix(0.692326, 0, 0, 0.69244, -50.3262, 517.536)" id="svg_724">
    <rect id="svg_725" y="0" x="0" height="2.599502" width="2.599932" fill="url(#svg_726)"/>
   </pattern>
   <pattern patternUnits="userSpaceOnUse" width="1.8" height="1.8" patternTransform="translate(-50.3262, 517.536)" id="svg_721">
    <rect id="svg_722" y="0" x="0" height="1.8" width="1.8" fill="url(#svg_723)"/>
   </pattern>
   <pattern patternUnits="userSpaceOnUse" width="2.341234" height="2.175213" patternTransform="translate(-50.4178, 517.402)" id="svg_712">
    <path d="m0.64745,0.54334c-0.08455,0.11809 -0.21624,0.19802 -0.34541,0.20961c-0.12916,0.01161 -0.23614,-0.04686 -0.28059,-0.15336c-0.04447,-0.10649 -0.01961,-0.24482 0.06516,-0.36279c0.08454,-0.11808 0.21624,-0.19802 0.3454,-0.2096c0.12916,-0.01162 0.23615,0.04686 0.28059,0.15336c0.04447,0.10649 0.01961,0.24482 -0.06515,0.36278z" id="svg_720" fill="#333333"/>
    <path id="svg_719" d="m0.80062,1.02685c0.08028,0.12676 0.09675,0.27154 0.04313,0.37971c-0.0536,0.10817 -0.16909,0.16329 -0.30292,0.14455c-0.13382,-0.01871 -0.26562,-0.10845 -0.34567,-0.23533c-0.08029,-0.12676 -0.09675,-0.27154 -0.04312,-0.37971c0.05359,-0.10818 0.16909,-0.16329 0.30291,-0.14455c0.13383,0.01871 0.26562,0.10845 0.34567,0.23533z" fill="#333333"/>
    <path d="m1.50426,0.31448c0.10504,0.15122 0.14242,0.33267 0.09799,0.47589c-0.04439,0.14323 -0.16382,0.22645 -0.31321,0.21827c-0.14939,-0.00815 -0.30602,-0.10649 -0.41081,-0.25788c-0.10504,-0.15121 -0.14242,-0.33266 -0.09799,-0.47588c0.0444,-0.14323 0.16382,-0.22646 0.31321,-0.21828c0.14939,0.00815 0.30602,0.1065 0.41081,0.25788z" id="svg_718" fill="#333333"/>
    <path id="svg_717" d="m0.41985,2.17521c-0.13756,0.00015 -0.26477,-0.05301 -0.3336,-0.13946c-0.06886,-0.08643 -0.0689,-0.19299 -0.00009,-0.27946c0.06878,-0.08649 0.19595,-0.13974 0.33351,-0.13967c0.13756,-0.00016 0.26477,0.05301 0.33361,0.13946c0.06886,0.08643 0.06889,0.19299 0.00009,0.27947c-0.06878,0.08649 -0.19596,0.13973 -0.33352,0.13966z" fill="#333333"/>
    <path id="svg_716" d="m1.53942,1.83097c-0.13687,0.10252 -0.30415,0.14336 -0.43873,0.10706c-0.13459,-0.03627 -0.21601,-0.14413 -0.21354,-0.28288c0.00244,-0.13876 0.08842,-0.2873 0.22546,-0.3896c0.13687,-0.10252 0.30416,-0.14335 0.43874,-0.10705c0.13459,0.03627 0.21601,0.14413 0.21353,0.28288c-0.00243,0.13875 -0.08842,0.28729 -0.22546,0.38959z" fill="#333333"/>
    <path id="svg_715" d="m2.21879,0.54951c-0.08196,0.11604 -0.20138,0.18919 -0.31323,0.19179c-0.11185,0.00263 -0.1991,-0.06564 -0.22884,-0.17907c-0.02977,-0.11342 0.00252,-0.25475 0.08466,-0.37064c0.08195,-0.11605 0.20139,-0.18919 0.31323,-0.19179c0.11185,-0.00263 0.19911,0.06564 0.22885,0.17907c0.02976,0.11342 -0.00253,0.25474 -0.08467,0.37064z" fill="#333333"/>
    <path d="m2.30187,1.87822c-0.05208,0.1289 -0.14818,0.22612 -0.25206,0.25494c-0.10388,0.02884 -0.19974,-0.01507 -0.25141,-0.11518c-0.05168,-0.10009 -0.05131,-0.24116 0.00097,-0.36996c0.05207,-0.12891 0.14818,-0.22612 0.25207,-0.25494c0.10388,-0.02884 0.19974,0.01507 0.2514,0.11518c0.05169,0.10009 0.0513,0.24115 -0.00097,0.36996z" id="svg_714" fill="#333333"/>
    <path d="m2.03204,0.80549c0.11235,0.007 0.21344,0.05793 0.26511,0.13362c0.05168,0.07568 0.04611,0.16458 -0.01463,0.23317c-0.06072,0.0686 -0.16738,0.10644 -0.27972,0.09926c-0.11234,-0.00699 -0.21343,-0.05793 -0.2651,-0.13362c-0.05169,-0.07567 -0.04611,-0.16458 0.01463,-0.23317c0.06072,-0.0686 0.16738,-0.10643 0.27971,-0.09926z" id="svg_713" fill="#333333"/>
   </pattern>
   <pattern patternUnits="userSpaceOnUse" width="4" height="4" patternTransform="translate(-50.3935, 512.782)" id="svg_497">
    <g transform="matrix(1.71954, 0.0532923, -0.0494765, 1.85216, 117.386, -950.24)" id="svg_703" fill="#800000">
     <path id="svg_711" d="m-52.7938,515.085754c-0.130779,0.182373 -0.362339,0.261536 -0.517208,0.17688c-0.154881,-0.084656 -0.174412,-0.301086 -0.043633,-0.483398c0.130772,-0.182312 0.362331,-0.261475 0.517212,-0.17688c0.154869,0.084656 0.174408,0.301086 0.043629,0.483398z" fill="#800000"/>
     <path d="m-52.640629,515.569275c0.123848,0.195923 0.088707,0.419434 -0.078491,0.499207c-0.167198,0.079773 -0.403118,-0.014343 -0.52697,-0.210266c-0.123852,-0.195923 -0.088711,-0.419373 0.078491,-0.499207c0.167198,-0.079773 0.403118,0.014343 0.52697,0.210266z" id="svg_710" fill="#800000"/>
     <path id="svg_709" d="m-51.936989,514.856934c0.162079,0.233704 0.15332,0.520874 -0.019562,0.641357c-0.172878,0.120422 -0.444401,0.028625 -0.606468,-0.205078c-0.162071,-0.233765 -0.15332,-0.520874 0.019569,-0.641357c0.172878,-0.120483 0.444389,-0.028687 0.606461,0.205078z" fill="#800000"/>
     <path d="m-53.0214,516.717651c-0.212498,0.000061 -0.3848,-0.124939 -0.38485,-0.279175c-0.00005,-0.154236 0.172169,-0.279358 0.38467,-0.279419c0.212509,-0.000061 0.384811,0.124939 0.384861,0.279175c0.00005,0.154236 -0.172173,0.279358 -0.384682,0.279419z" id="svg_708" fill="#800000"/>
     <path d="m-51.901829,516.373413c-0.211571,0.158203 -0.478622,0.159851 -0.596481,0.003723c-0.11787,-0.156128 -0.041901,-0.41095 0.16967,-0.569153c0.211571,-0.158203 0.478619,-0.159851 0.596489,-0.003723c0.117863,0.156128 0.041901,0.41095 -0.169678,0.569153z" id="svg_707" fill="#800000"/>
     <path d="m-51.222462,515.09198c-0.126747,0.179138 -0.331879,0.244263 -0.458187,0.145386c-0.12632,-0.098816 -0.125961,-0.324158 0.000778,-0.503357c0.126751,-0.179138 0.331882,-0.244263 0.458202,-0.145386c0.126308,0.098816 0.125957,0.324158 -0.000793,0.503357z" id="svg_706" fill="#800000"/>
     <path id="svg_705" d="m-51.139381,516.420654c-0.080597,0.199036 -0.258419,0.308899 -0.39719,0.2453c-0.13876,-0.063538 -0.185909,-0.276428 -0.105309,-0.475525c0.080601,-0.199036 0.25843,-0.308838 0.39719,-0.2453c0.138771,0.063599 0.185921,0.276489 0.105309,0.475525z" fill="#800000"/>
     <path id="svg_704" d="m-51.40921,515.347961c0.17355,0.010925 0.30769,0.124084 0.29961,0.252808c-0.00808,0.128723 -0.1553,0.224182 -0.32885,0.213196c-0.17355,-0.010925 -0.307682,-0.124146 -0.29961,-0.252808c0.00808,-0.128723 0.1553,-0.224182 0.32885,-0.213196z" fill="#800000"/>
    </g>
   </pattern>
   <pattern patternUnits="userSpaceOnUse" width="4.531986" height="4.508552" patternTransform="translate(-50.6334, 507.297)" id="svg_494">
    <g id="svg_693">
     <path d="m0.79009,2.82555c-0.43626,0.00012 -0.78998,-0.23455 -0.79008,-0.52419c-0.00011,-0.28965 0.35345,-0.52451 0.7897,-0.52464c0.43626,-0.00012 0.78998,0.23455 0.79008,0.52419c0.00011,0.28965 -0.35345,0.52452 -0.7897,0.52464z" id="svg_702" fill="#800000"/>
     <path d="m3.82611,1.481c-0.45448,0.31616 -0.8984,0.29682 -0.99156,-0.04324c-0.09315,-0.34001 0.19974,-0.87197 0.65422,-1.18813c0.45447,-0.31616 0.89841,-0.29677 0.99156,0.04324c0.09316,0.34005 -0.19974,0.87197 -0.65422,1.18813z" id="svg_701" fill="#800000"/>
     <path id="svg_700" d="m2.31355,1.64747c0.32663,0.02919 0.57908,0.33114 0.56388,0.67444c-0.01519,0.34331 -0.29228,0.59792 -0.61891,0.56873c-0.32662,-0.02919 -0.57908,-0.33112 -0.56388,-0.67444c0.01519,-0.34329 0.29228,-0.59792 0.61891,-0.56873z" fill="#800000"/>
     <path id="svg_699" d="m3.74229,2.77869c-0.43626,0.00012 -0.78998,-0.23455 -0.79008,-0.52419c-0.0001,-0.28965 0.35345,-0.52451 0.7897,-0.52464c0.43626,-0.00012 0.78998,0.23455 0.79008,0.52419c0.00011,0.28965 -0.35345,0.52452 -0.7897,0.52464z" fill="#800000"/>
     <path d="m2.79041,0.7897c0.00012,0.43625 -0.23456,0.78997 -0.52419,0.79007c-0.28964,0.00011 -0.52452,-0.35345 -0.52464,-0.7897c-0.00012,-0.43626 0.23455,-0.78998 0.52419,-0.79008c0.28963,-0.0001 0.52451,0.35345 0.52464,0.78971z" id="svg_698" fill="#800000"/>
     <path id="svg_697" d="m2.81383,3.71846c0.00013,0.43626 -0.23455,0.78998 -0.52418,0.79008c-0.28964,0.0001 -0.52452,-0.35345 -0.52464,-0.78971c-0.00012,-0.43625 0.23455,-0.78997 0.52419,-0.79007c0.28964,-0.00011 0.52451,0.35345 0.52464,0.7897l-0.00001,0z" fill="#800000"/>
     <path id="svg_696" d="m1.04964,4.2809c-0.45448,0.31616 -0.8984,0.29682 -0.99157,-0.04324c-0.09315,-0.34001 0.19974,-0.87197 0.65422,-1.18813c0.45448,-0.31616 0.89842,-0.29677 0.99157,0.04324c0.09316,0.34005 -0.19974,0.87197 -0.65422,1.18813z" fill="#800000"/>
     <path d="m1.49665,0.72009c0.31616,0.45448 0.2968,0.89841 -0.04323,0.99157c-0.34006,0.09316 -0.87197,-0.19974 -1.18813,-0.65422c-0.31616,-0.45448 -0.29682,-0.89841 0.04323,-0.99157c0.34004,-0.09316 0.87197,0.19974 1.18813,0.65422z" id="svg_695" fill="#800000"/>
     <path id="svg_694" d="m4.24969,3.4497c0.31616,0.45448 0.2968,0.89841 -0.04323,0.99156c-0.34006,0.09317 -0.87197,-0.19973 -1.18813,-0.65421c-0.31616,-0.45448 -0.29682,-0.89841 0.04323,-0.99157c0.34004,-0.09316 0.87197,0.19974 1.18813,0.65422z" fill="#800000"/>
    </g>
   </pattern>
   <pattern patternUnits="userSpaceOnUse" width="5.599999" height="5.602892" patternTransform="translate(-82.2386, 518.899)" id="svg_684">
    <path d="m1.54863,1.40171c-0.20223,0.304 -0.51722,0.5098 -0.82617,0.53963c-0.30894,0.0299 -0.56484,-0.12065 -0.67114,-0.39483c-0.10637,-0.27416 -0.04692,-0.63028 0.15584,-0.93397c0.20222,-0.30401 0.51723,-0.50979 0.82617,-0.53962c0.30894,-0.0299 0.56484,0.12064 0.67115,0.39482c0.10636,0.27416 0.04689,0.63027 -0.15585,0.93397z" id="svg_692" fill="#800000"/>
    <path id="svg_691" d="m1.98906,2.64646c0.19203,0.32635 0.23141,0.69908 0.10315,0.97755c-0.12819,0.27849 -0.40445,0.42039 -0.72454,0.37215c-0.3201,-0.04817 -0.63535,-0.2792 -0.82681,-0.60585c-0.19206,-0.32634 -0.23142,-0.69908 -0.10316,-0.97755c0.12819,-0.2785 0.40445,-0.4204 0.72454,-0.37216c0.3201,0.04818 0.63533,0.27922 0.82682,0.60586z" fill="#800000"/>
    <path d="m3.59807,0.6644c0.25122,0.3893 0.34064,0.85643 0.23437,1.22515c-0.10619,0.36874 -0.39184,0.583 -0.74916,0.56193c-0.35732,-0.02098 -0.73199,-0.27415 -0.98262,-0.6639c-0.25125,-0.38929 -0.34065,-0.85644 -0.23438,-1.22515c0.1062,-0.36874 0.39184,-0.583 0.74916,-0.56193c0.35733,0.02098 0.73197,0.27417 0.98263,0.6639z" id="svg_690" fill="#740000"/>
    <path id="svg_689" d="m1.00426,5.60289c-0.32903,0.00038 -0.6333,-0.13648 -0.79795,-0.35904c-0.16471,-0.22251 -0.16479,-0.49684 -0.00022,-0.71947c0.16452,-0.22267 0.46871,-0.35975 0.79774,-0.35957c0.32903,-0.0004 0.6333,0.13648 0.79795,0.35904c0.16471,0.22252 0.16479,0.49685 0.00022,0.71947c-0.16452,0.22267 -0.46871,0.35973 -0.79774,0.35957z" fill="#7b0000"/>
    <path id="svg_688" d="m3.68215,4.71665c-0.3274,0.26392 -0.72752,0.36907 -1.04942,0.27561c-0.32191,-0.09337 -0.51666,-0.37105 -0.51075,-0.72826c0.00583,-0.35722 0.21149,-0.73965 0.53928,-1.00299c0.32738,-0.26395 0.72752,-0.36906 1.04942,-0.27561c0.32192,0.09337 0.51666,0.37105 0.51075,0.72827c-0.00583,0.35721 -0.2115,0.73961 -0.53928,1.00298z" fill="#800000"/>
    <path id="svg_687" d="m5.30715,1.41758c-0.19604,0.29874 -0.48169,0.48704 -0.74922,0.49375c-0.26753,0.00678 -0.47624,-0.169 -0.54737,-0.46102c-0.0712,-0.29199 0.00604,-0.65583 0.20251,-0.9542c0.19602,-0.29876 0.48169,-0.48705 0.74922,-0.49375c0.26753,-0.00678 0.47624,0.169 0.54738,0.46101c0.07119,0.29199 -0.00607,0.65582 -0.20252,0.95421z" fill="#800000"/>
    <path d="m5.50586,4.8383c-0.12457,0.33184 -0.35443,0.58212 -0.60292,0.65632c-0.24847,0.07426 -0.47775,-0.0388 -0.60133,-0.29651c-0.12363,-0.25768 -0.12273,-0.62086 0.00232,-0.95247c0.12455,-0.33185 0.35443,-0.58212 0.60292,-0.65631c0.24847,-0.07426 0.47775,0.03879 0.60133,0.29651c0.12363,0.25768 0.12271,0.62085 -0.00232,0.95246z" id="svg_686" fill="#800000"/>
    <path d="m4.86045,2.0766c0.26873,0.01801 0.51052,0.14914 0.63411,0.344c0.12363,0.19482 0.11029,0.42371 -0.03499,0.60028c-0.14524,0.17661 -0.40036,0.27404 -0.66905,0.25555c-0.26872,-0.01799 -0.51052,-0.14914 -0.63411,-0.34399c-0.12363,-0.19483 -0.11029,-0.42371 0.03499,-0.60029c0.14524,-0.17661 0.40036,-0.27401 0.66905,-0.25555z" id="svg_685" fill="#800000"/>
   </pattern>
   <pattern patternUnits="userSpaceOnUse" width="5.734434" height="5.737327" patternTransform="translate(-80.0166, 517.465)" id="svg_511">
    <rect id="svg_680" y="0.067217" x="0.067217" height="5.602892" width="5.599999" filter="url(#svg_682)" fill="url(#svg_681)"/>
   </pattern>
  </defs>
  <metadata id="svg_679">image/svg+xml</metadata>
  <g id="svg_991">
   <metadata fill="#ffaaaa" id="svg_993">image/svg+xml</metadata>
   <g transform="matrix(0.150227, 0.427059, -0.644068, 0.226565, 777.946, -282.61)" id="svg_994">
    <g id="svg_995">
     <path d="m338.457001,1230.284058c-5.077759,-2.640869 -10.207642,-4.946777 -14.913635,-8.333252c-10.05658,-7.706055 -18.564941,-16.622559 -25.948914,-26.897217c-8.472961,-11.733643 -11.070679,-25.171631 -11.315186,-39.318359c1.427368,-14.806641 9.026428,-26.431152 19.11731,-36.821777c12.297974,-10.630615 26.767578,-18.044189 42.58374,-21.563965c17.509888,-3.31543 34.810974,-0.540039 51.7146,4.226563c15.620239,5.002686 28.552368,14.250732 38.52063,27.124023c9.231567,14.171875 6.759521,28.649658 0.916504,43.476318c-9.0625,17.610352 -22.656006,32.241943 -35.16272,47.405762c-13.734497,15.315674 -24.492432,32.687012 -33.416504,51.12793c-3.05481,11.607422 -9.776978,24.2229 -8.122803,36.04248c0.140015,1.000488 -1.2771,1.197266 -1.415039,0.196533l0,0c-2.02124,-14.672119 -6.129761,-25.500732 3.087158,-39.514893c9.786377,-18.427734 22.734253,-34.794189 34.457397,-51.999512c10.872314,-15.280518 22.190186,-30.487061 30.410156,-47.404297c4.800171,-11.295654 6.876465,-22.389404 1.282227,-33.913574c-7.424561,-12.870361 -18.485352,-21.390381 -32.374268,-26.717041c-15.756104,-5.427979 -32.13623,-7.564209 -48.702454,-4.687012c-15.166565,3.383057 -29.66925,7.339355 -40.667664,19.14917c-8.895935,9.635254 -15.779846,20.580078 -16.775085,33.999512c-0.888,13.134521 2.606689,25.209961 9.890991,36.234375c7.157166,9.532715 15.681885,18.162354 25.425964,25.062256c4.024719,2.996094 7.935364,7.369141 12.914063,8.439697c3.402954,0.731445 1.581665,6.292236 -1.50647,4.686279z" stroke-width="1px" fill-rule="nonzero" fill="#ffaaaa" id="svg_996"/>
     <path d="m482.511627,959.052124c4.972839,-2.520508 10.335999,-3.69165 15.759277,-4.790771c11.285278,-1.808105 22.673126,-1.259521 33.885895,0.647217c10.961792,3.009521 18.968506,10.196533 26.357422,18.422729c6.50769,8.88208 8.394165,17.809326 4.309814,28.06665c-5.430176,11.007568 -16.412842,17.081055 -26.373535,23.447754c-12.290039,7.348511 -24.938751,14.049438 -37.482574,20.944702c-14.444397,7.148682 -27.381836,16.517578 -39.960815,26.481934c-14.420227,11.944336 -26.036438,26.558105 -35.906677,42.365967c-9.792358,14.862061 -14.708862,31.665527 -17.640747,49.020752c-2.78418,13.042969 -0.153442,25.415039 4.351074,37.659424c0.348755,0.947998 -0.993408,1.440918 -1.341064,0.492432l0,0c-4.563354,-12.450684 -6.791382,-25.318115 -6.390137,-38.637451c2.16626,-18.130371 8.557007,-34.790283 18.356323,-50.23877c10.387817,-15.879883 21.283936,-31.567383 35.654907,-44.169922c12.318176,-10.734619 25.598938,-20.367188 39.679016,-28.675293c12.227661,-6.998535 24.641754,-13.78772 36.116852,-21.98938c7.979736,-5.724121 15.871094,-11.775146 20.626587,-20.597168c2.262451,-6.584717 2.892212,-12.873047 -0.837036,-19.170898c-4.713989,-8.416992 -12.320557,-14.170288 -21.165527,-17.901245c-10.143066,-4.541016 -20.688995,-6.051025 -31.651154,-3.518555c-5.106873,1.237793 -10.232239,2.686523 -14.942932,5.064453c-2.048157,1.033691 -3.451233,-1.887451 -1.404968,-2.924561z" stroke-width="1px" fill-rule="nonzero" fill="#ffaaaa" id="svg_997"/>
     <path d="m453.030487,1114.337769c1.660522,-2.41748 4.7901,-3.422119 7.427063,-4.618164c7.371216,-3.456787 13.661377,-8.562012 19.538818,-14.109375c8.010193,-7.794189 13.853699,-17.13501 19.102295,-26.899658c4.392334,-9.6521 6.236328,-20.259277 5.915771,-30.817383c-1.164063,-7.237061 -2.571289,-14.545532 -9.195435,-18.435181c-0.870972,-0.511475 -0.1427,-1.745605 0.726196,-1.230225l0,0c8.565918,5.079834 16.6409,8.228027 15.791901,19.966675c-1.163361,11.397705 -5.921295,21.479248 -10.978424,31.651123c-4.831299,10.307617 -11.078186,19.875 -18.762695,28.306885c-5.685791,6.281494 -11.645386,12.295166 -18.116821,17.775879c-2.087158,1.803711 -4.522095,4.251465 -7.205811,4.518066c-5.233459,0.519775 -7.220642,-1.773682 -4.242859,-6.108643z" stroke-width="1px" fill-rule="nonzero" fill="#ffaaaa" id="svg_998"/>
     <path d="m378.969818,1242.71814c0.880615,-3.320557 4.05603,-5.700928 6.27832,-8.368408c5.548706,-7.371338 8.772705,-15.713623 11.423706,-24.462402c1.9198,-10.176025 1.761597,-20.39502 -1.136108,-30.327393c-2.361816,-8.290039 -7.018677,-15.609619 -13.249878,-21.502197c-6.661255,-6.011963 -14.573975,-6.776123 -23.126465,-5.737793c-5.893677,0.903076 -10.802795,3.486084 -15.803833,6.532959c-0.862671,0.525635 -1.605835,-0.695557 -0.742676,-1.220459l0,0c5.138672,-3.123535 10.133423,-6.569336 15.752441,-8.800049c10.442932,-3.400146 20.644775,-4.149414 29.912476,2.842041c7.757202,7.240479 12.758423,15.936768 14.815674,26.451416c1.151611,11.103027 0.474243,22.047119 -3.526611,32.599365c-2.508423,9.07666 -5.453369,18.256836 -9.967285,26.536133c-1.762329,3.271484 -3.401367,7.325684 -6.914978,8.651855c-3.241577,1.223633 -4.602966,0.153809 -3.714783,-3.195068z" stroke-width="1px" fill-rule="nonzero" fill="#ffaaaa" id="svg_999"/>
     <path d="m424.892303,1182.564819c2.465942,-2.000732 3.960327,-4.804199 5.595337,-7.470215c4.230103,-7.087891 9.269653,-13.621338 14.458618,-20.021484c7.44751,-9.285645 15.742737,-17.80835 24.28949,-26.07251c8.59729,-6.803955 15.251038,-14.995117 21.831482,-23.626953c6.024109,-9.341309 13.468201,-13.336914 24.146942,-9.553955c5.552246,2.825928 7.422363,8.100098 10.199951,13.251709c0.746338,0.600098 1.492554,1.200195 2.238892,1.800293c0.787231,0.633057 0.84729,0.877441 0.000732,1.428467l0,0c-0.923096,0.601074 -1.846191,1.201904 -2.769409,1.802979c-5.537964,3.340332 -12.03186,3.103027 -17.811188,0.091064c-1.885376,-4.288574 -6.687988,-2.976318 -10.996216,-2.149658c-10.332458,3.812012 -18.370483,9.852783 -25.848145,17.98291c-8.505615,8.223877 -16.761536,16.704346 -24.172913,25.945557c-5.150024,6.351074 -10.152832,12.833984 -14.350464,19.868408c-1.610107,2.625488 -3.523193,5.175293 -4.308716,8.188721c-0.517578,1.985352 -4.097534,-0.172607 -2.504395,-1.465332z" stroke-width="1px" fill-rule="nonzero" fill="#ffaaaa" id="svg_1000"/>
     <path d="m346.431854,1103.241333c-2.376343,-0.205811 -4.771179,-0.495605 -7.169922,-0.663574c-7.4198,0.071533 -14.649292,2.274902 -21.673706,4.474121c-13.99707,5.703125 -26.403137,14.377441 -38.454956,23.348877c-16.384033,12.584229 -30.689041,27.552246 -41.557449,45.121338c-8.047668,12.465332 -0.472046,26.270996 -3.452881,38.905518c1.127686,1.664795 2.25531,3.329346 3.382996,4.993896c0.566528,0.836182 -0.621033,1.637451 -1.184326,0.798828l0,0c-1.169434,-1.740723 -2.338867,-3.481201 -3.508301,-5.221924c-14.068542,-10.780273 -5.741577,-28.283447 3.278503,-40.432617c11.58551,-17.284668 25.513077,-32.73877 42.188492,-45.311035c12.155701,-9.046631 24.671387,-17.78833 38.790222,-23.534424c7.040649,-3.288818 14.228394,-6.136475 21.891602,-7.605957c2.659912,-0.434082 5.488159,-0.889893 8.077637,-0.079834c3.537842,1.106689 3.085144,5.526855 -0.60791,5.206787z" stroke-width="1px" fill-rule="nonzero" fill="#ffaaaa" id="svg_1001"/>
     <path d="m409.873138,1229.96228c2.473633,-2.673096 5.072754,-5.262695 7.810669,-7.68042c7.481445,-6.092285 13.93103,-13.140869 20.618286,-20.07373c6.849365,-8.984131 15.6073,-16.381592 23.861877,-24.064209c10.331421,-8.929443 19.511475,-11.264648 32.762329,-8.407959c1.869019,-1.404541 3.738037,-2.808838 5.607056,-4.213379c0.807617,-0.606934 1.665771,0.535645 0.858032,1.14209l0,0c-1.89209,1.420898 -3.78418,2.841553 -5.676392,4.262451c-3.177307,13.648926 -9.668274,20.418457 -22.771362,25.32373c-10.401489,3.379883 -20.353699,7.728271 -30.638977,11.39502c-8.548218,4.265625 -16.942993,8.653564 -23.614624,15.650146c-2.31189,2.588379 -4.580078,5.11377 -5.692749,8.459717c-0.803833,2.417236 -4.854248,0.076172 -3.124146,-1.793457z" stroke-width="1px" fill-rule="nonzero" fill="#ffaaaa" id="svg_1002"/>
     <path d="m545.374695,967.089478c-2.16687,-1.163818 -4.283203,-2.495361 -6.465576,-3.672607c-4.993774,-3.491211 -10.470703,-6.219971 -15.982422,-8.783691c-5.454468,-2.764648 -11.194611,-4.937988 -16.40567,-8.161377c-4.4021,-2.582275 -7.329834,-6.06665 -8.531494,-11.001343c0.812622,-7.464966 9.399658,-8.207642 15.37674,-9.303833c8.074829,-1.844238 16.320923,-1.688477 24.526367,-1.243896c5.719971,0.258301 10.956787,1.422363 15.248413,5.340088c4.26062,5.856079 -1.066772,9.516479 -6.492554,10.728516c-0.962891,0.383301 -1.925659,0.766357 -2.88855,1.149414c-0.938599,0.373535 -1.465942,-0.957275 -0.526367,-1.328125l0,0c0.915161,-0.361084 1.830322,-0.722168 2.745483,-1.083374c1.852905,-1.944092 3.472534,-3.597412 3.417847,-6.298706c-2.830811,-3.891357 -6.852661,-5.876709 -11.680786,-6.753662c-7.980835,-1.187256 -16.095703,-0.723389 -23.999634,0.874756c-4.449493,1.458984 -8.994781,2.811035 -11.127228,7.266479c0.681274,3.723755 2.625,6.435425 5.788452,8.789429c4.954132,3.374512 10.199005,6.261719 15.671051,8.71167c5.437134,2.745361 10.911865,5.476807 16.636475,7.578857c2.445679,1.151611 5.123047,1.97583 7.212402,3.73291c2.31665,1.948242 0.143799,4.890747 -2.522949,3.458496z" stroke-width="1px" fill-rule="nonzero" fill="#ffaaaa" id="svg_1003"/>
    </g>
   </g>
  </g>
  <g id="svg_1004">
   <metadata fill="#ffaad4" id="svg_1006">image/svg+xml</metadata>
   <g transform="matrix(-0.00832755, -0.204586, -0.503305, 0.0204867, 876.504, 77.5695)" id="svg_1007">
    <g id="svg_1008">
     <path d="m-268.901001,1606.831299c-5.077759,-2.641113 -10.207642,-4.947021 -14.913574,-8.33374c-10.056519,-7.706055 -18.564941,-16.622559 -25.948975,-26.896973c-8.472931,-11.733887 -11.070679,-25.171875 -11.315063,-39.318359c1.427246,-14.806641 9.026367,-26.431152 19.117188,-36.821777c12.297974,-10.630859 26.767578,-18.044434 42.58374,-21.563965c17.509872,-3.31543 34.81102,-0.540039 51.714584,4.226563c15.620239,5.002441 28.552368,14.250488 38.52063,27.124023c9.231567,14.171875 6.759521,28.649414 0.916504,43.476074c-9.0625,17.610352 -22.656006,32.242188 -35.16272,47.405762c-13.734497,15.316162 -24.492432,32.687256 -33.416504,51.128174c-3.05481,11.607422 -9.776978,24.223145 -8.122803,36.04248c0.140015,1.000488 -1.2771,1.197266 -1.415039,0.196777l0,0c-2.02124,-14.672363 -6.129761,-25.500977 3.087158,-39.515137c9.786377,-18.427734 22.734253,-34.793945 34.457397,-51.999756c10.872314,-15.280273 22.190186,-30.486816 30.410156,-47.404297c4.800171,-11.29541 6.876465,-22.38916 1.282227,-33.913574c-7.424561,-12.870117 -18.485352,-21.390137 -32.374268,-26.716797c-15.756104,-5.428223 -32.13623,-7.564453 -48.702377,-4.687012c-15.166626,3.382813 -29.669312,7.339355 -40.667725,19.148926c-8.895874,9.635254 -15.779816,20.580078 -16.775055,33.999512c-0.888062,13.134766 2.60672,25.209961 9.891022,36.234375c7.157104,9.532715 15.681885,18.162598 25.425903,25.0625c4.02478,2.996094 7.935425,7.369141 12.914063,8.439453c3.402954,0.731689 1.581665,6.292725 -1.50647,4.686768z" stroke-width="1px" fill-rule="nonzero" fill="#7f003f" id="svg_1009"/>
     <path d="m-124.846329,1335.598633c4.972778,-2.520508 10.335938,-3.69165 15.759277,-4.790771c11.285278,-1.807861 22.673088,-1.259521 33.885864,0.647217c10.961784,3.009521 18.968506,10.196533 26.357418,18.422852c6.50769,8.882324 8.394169,17.80957 4.309811,28.066895c-5.430172,11.007324 -16.41283,17.081055 -26.373535,23.447754c-12.290039,7.348633 -24.938713,14.049316 -37.482536,20.944824c-14.444458,7.148438 -27.381836,16.517578 -39.960815,26.481934c-14.420288,11.944336 -26.036499,26.558105 -35.906738,42.365723c-9.792358,14.862305 -14.708862,31.665527 -17.640747,49.020996c-2.78418,13.042969 -0.153442,25.415039 4.351074,37.65918c0.348755,0.948242 -0.993408,1.440918 -1.341064,0.492676l0,0c-4.563354,-12.450684 -6.791382,-25.318359 -6.390137,-38.637695c2.16626,-18.130371 8.557007,-34.790039 18.356323,-50.23877c10.387817,-15.879883 21.283936,-31.567383 35.654907,-44.169922c12.318237,-10.734375 25.598999,-20.367188 39.679077,-28.675293c12.227661,-6.998535 24.641724,-13.787598 36.116821,-21.989258c7.979736,-5.724121 15.87109,-11.775391 20.626587,-20.597168c2.262444,-6.584961 2.892212,-12.873291 -0.83704,-19.171143c-4.713989,-8.416748 -12.320545,-14.170166 -21.165531,-17.901367c-10.143059,-4.541016 -20.688957,-6.051025 -31.651115,-3.518311c-5.106934,1.237549 -10.2323,2.686279 -14.942993,5.064209c-2.048096,1.033936 -3.451172,-1.887451 -1.404907,-2.924561z" stroke-width="1px" fill-rule="nonzero" fill="#7f003f" id="svg_1010"/>
     <path d="m-154.32753,1490.884766c1.660522,-2.41748 4.790161,-3.422363 7.427124,-4.618164c7.371216,-3.457031 13.661377,-8.562012 19.538818,-14.109375c8.010124,-7.794434 13.853638,-17.135254 19.102295,-26.899902c4.392334,-9.651855 6.236336,-20.259277 5.915771,-30.817383c-1.164063,-7.236816 -2.571289,-14.54541 -9.195442,-18.435059c-0.870964,-0.511719 -0.1427,-1.745605 0.726204,-1.230469l0,0c8.565918,5.080078 16.640869,8.228027 15.79187,19.966797c-1.16333,11.397949 -5.921272,21.479492 -10.978394,31.651367c-4.831299,10.307617 -11.078247,19.875 -18.762695,28.306641c-5.685791,6.281738 -11.645386,12.29541 -18.116821,17.775879c-2.087158,1.803711 -4.522095,4.251465 -7.205811,4.518066c-5.233521,0.52002 -7.220703,-1.773438 -4.24292,-6.108398z" stroke-width="1px" fill-rule="nonzero" fill="#7f003f" id="svg_1011"/>
     <path d="m-228.388199,1619.265381c0.880615,-3.320801 4.05603,-5.701172 6.27832,-8.368652c5.548706,-7.371094 8.772705,-15.713623 11.423706,-24.462646c1.9198,-10.175781 1.761597,-20.39502 -1.136108,-30.327148c-2.361816,-8.290039 -7.018677,-15.609863 -13.249878,-21.502441c-6.661255,-6.011719 -14.573975,-6.775879 -23.126465,-5.737793c-5.893677,0.90332 -10.802719,3.486328 -15.803818,6.533203c-0.862671,0.525391 -1.605835,-0.695801 -0.742676,-1.220703l0,0c5.138672,-3.123535 10.133408,-6.569336 15.752426,-8.799805c10.442993,-3.400391 20.644775,-4.149414 29.912476,2.841797c7.757202,7.240723 12.758423,15.937012 14.815674,26.45166c1.151611,11.103027 0.474243,22.046875 -3.526611,32.599121c-2.508423,9.07666 -5.453369,18.25708 -9.967285,26.536377c-1.762329,3.271484 -3.401367,7.325684 -6.914917,8.651855c-3.241699,1.223633 -4.603027,0.153809 -3.714844,-3.194824z" stroke-width="1px" fill-rule="nonzero" fill="#7f003f" id="svg_1012"/>
     <path d="m-182.465714,1559.111816c2.465942,-2.000977 3.960327,-4.804199 5.595337,-7.470215c4.230103,-7.087891 9.269653,-13.621582 14.458618,-20.021484c7.44751,-9.285645 15.742798,-17.808594 24.289551,-26.072754c8.59729,-6.803711 15.250977,-14.995117 21.831421,-23.626953c6.02417,-9.341309 13.468254,-13.336914 24.14698,-9.553711c5.552238,2.825684 7.422356,8.100098 10.199944,13.251465c0.746346,0.600098 1.492554,1.200195 2.238892,1.800293c0.787231,0.633301 0.84729,0.877441 0.000732,1.428711l0,0c-0.923088,0.601074 -1.846191,1.20166 -2.769409,1.802734c-5.537964,3.340332 -12.03186,3.103027 -17.811165,0.091309c-1.885368,-4.288574 -6.687981,-2.976563 -10.996208,-2.149902c-10.33252,3.812012 -18.370483,9.853027 -25.848145,17.98291c-8.505615,8.224121 -16.761597,16.70459 -24.172974,25.945801c-5.150024,6.351074 -10.152832,12.833984 -14.350464,19.868164c-1.610107,2.625488 -3.523193,5.175293 -4.308716,8.188965c-0.517578,1.985352 -4.097534,-0.172852 -2.504395,-1.465332z" stroke-width="1px" fill-rule="nonzero" fill="#7f003f" id="svg_1013"/>
     <path d="m-260.926147,1479.788086c-2.376343,-0.205566 -4.771118,-0.495605 -7.169922,-0.663574c-7.4198,0.071777 -14.649292,2.274902 -21.673706,4.474121c-13.99707,5.703125 -26.403107,14.377441 -38.454956,23.349121c-16.384033,12.583984 -30.688965,27.552246 -41.557373,45.121094c-8.047729,12.465332 -0.472046,26.270996 -3.452881,38.905762c1.127686,1.664551 2.255249,3.329102 3.382935,4.993652c0.566528,0.836426 -0.620972,1.637695 -1.184326,0.798828l0,0c-1.169434,-1.740723 -2.338867,-3.480957 -3.508301,-5.22168c-14.068481,-10.780273 -5.741577,-28.283691 3.278564,-40.432617c11.585449,-17.284668 25.513062,-32.73877 42.188477,-45.311035c12.155609,-9.046875 24.671387,-17.788574 38.790161,-23.534668c7.040649,-3.288574 14.228394,-6.13623 21.891602,-7.605957c2.659912,-0.434082 5.488159,-0.889648 8.077637,-0.07959c3.537842,1.106445 3.085205,5.526855 -0.60791,5.206543z" stroke-width="1px" fill-rule="nonzero" fill="#7f003f" id="svg_1014"/>
     <path d="m-197.484879,1606.509521c2.473633,-2.67334 5.072754,-5.262939 7.810669,-7.680908c7.481445,-6.092285 13.93103,-13.140625 20.618286,-20.07373c6.849365,-8.983887 15.6073,-16.381348 23.861938,-24.063965c10.331421,-8.929688 19.511475,-11.264648 32.762321,-8.408203c1.869026,-1.404297 3.738045,-2.808594 5.607063,-4.213379c0.807617,-0.606934 1.665771,0.535645 0.858032,1.14209l0,0c-1.89209,1.420898 -3.78418,2.841797 -5.676392,4.262695c-3.177368,13.648926 -9.668327,20.418457 -22.771362,25.32373c-10.401489,3.379883 -20.35376,7.728027 -30.639038,11.39502c-8.548218,4.265625 -16.942993,8.65332 -23.614624,15.649902c-2.31189,2.588623 -4.580078,5.114014 -5.692749,8.460205c-0.803833,2.416992 -4.854248,0.076172 -3.124146,-1.793457z" stroke-width="1px" fill-rule="nonzero" fill="#7f003f" id="svg_1015"/>
     <path d="m-61.983292,1343.63623c-2.16687,-1.164063 -4.283195,-2.495605 -6.465576,-3.672852c-4.993774,-3.491211 -10.470703,-6.219727 -15.982422,-8.783691c-5.454468,-2.764648 -11.19458,-4.937988 -16.40564,-8.161377c-4.4021,-2.582275 -7.329834,-6.06665 -8.531494,-11.001221c0.812622,-7.465088 9.399651,-8.207764 15.376717,-9.303955c8.074814,-1.843994 16.320915,-1.688232 24.52636,-1.243652c5.719967,0.258301 10.956787,1.422363 15.248405,5.339844c4.26062,5.856201 -1.066769,9.516602 -6.49255,10.728516c-0.962887,0.383301 -1.925659,0.766357 -2.88855,1.149414c-0.938595,0.373535 -1.465939,-0.957275 -0.526356,-1.328125l0,0c0.915157,-0.361084 1.830318,-0.722168 2.745476,-1.083252c1.852901,-1.944092 3.47253,-3.597412 3.417843,-6.298828c-2.830811,-3.891357 -6.852665,-5.876709 -11.680782,-6.753662c-7.980843,-1.187012 -16.095695,-0.723145 -23.999641,0.874756c-4.449455,1.459229 -8.994751,2.811279 -11.12719,7.266602c0.681274,3.723633 2.625,6.435303 5.788452,8.789307c4.954102,3.374512 10.198967,6.261719 15.671021,8.71167c5.437141,2.745361 10.911873,5.476807 16.636482,7.578857c2.445663,1.151611 5.123035,1.97583 7.212399,3.733154c2.31665,1.948242 0.143799,4.890625 -2.522953,3.458496z" stroke-width="1px" fill-rule="nonzero" fill="#7f003f" id="svg_1016"/>
    </g>
   </g>
  </g>
  <g transform="rotate(19.9593, 184.131, 149.658) matrix(0.257528, 0, 0, 0.223869, 18.9398, 19.1052)" id="svg_8">
   <g transform="matrix(0.0855019, 0, 0, 0.0855019, 0, 0)" id="svg_6">
    <path fill="#7f003f" stroke="#000000" stroke-width="0" stroke-miterlimit="4" id="svg_7" d="m7393.583984,6608.831055c-66.240234,0 -120,53.759766 -120,120c0,134.755859 135.933594,170.087891 228.5625,303.308594c87.574219,-132.40332 228.5625,-172.854492 228.5625,-303.308594c0,-66.240234 -53.759766,-120 -120,-120c-48.046875,0 -89.401367,28.371094 -108.5625,69.1875c-19.160156,-40.816406 -60.513672,-69.1875 -108.5625,-69.1875z"/>
   </g>
  </g>
  <g transform="rotate(-31.9574, 22.8948, 113.966) matrix(0.277104, 0, 0, 0.273116, 16.1404, 10.5067)" id="svg_1">
   <g transform="matrix(0.0855019, 0, 0, 0.0855019, 0, 0)" id="svg_2">
    <path fill="#7f003f" stroke="#000000" stroke-width="0" stroke-miterlimit="4" d="m176.520355,4218.806152c-66.240242,0 -120.000004,53.759766 -120.000004,120c0,134.755859 135.932606,170.087891 228.562504,303.308594c87.574219,-132.40332 228.561981,-172.854492 228.561981,-303.308594c0,-66.240234 -53.760223,-120 -119.999481,-120c-48.047852,0 -89.402344,28.371094 -108.5625,69.1875c-19.161133,-40.816406 -60.514648,-69.1875 -108.5625,-69.1875z" id="svg_3"/>
   </g>
  </g>
 </g>
</svg>